<mxfile host="app.diagrams.net" modified="2023-10-09T05:07:50.521Z" agent="Mozilla/5.0 (Windows NT 10.0; Win64; x64) AppleWebKit/537.36 (KHTML, like Gecko) Chrome/117.0.0.0 Safari/537.36 Edg/117.0.2045.60" version="22.0.4" etag="gT-j_xHnk59iWo9mJQga" type="github">
  <diagram name="Page-1" id="yg7DZBFzdx4pAL2Qoueg">
    <mxGraphModel>
      <root>
        <mxCell id="0" />
        <mxCell id="1" parent="0" />
      </root>
    </mxGraphModel>
  </diagram>
</mxfile>
